<svg width="256" height="256" viewBox="0 0 256 256" fill="none" xmlns="http://www.w3.org/2000/svg">
<g clip-path="url(#clip0_869_4089)">
<path d="M250.547 5.45276H5.45276V250.547H250.547V5.45276Z" fill="#FFFDEA"/>
<path d="M145.127 121.422C148.572 122.795 152.146 123.871 155.754 124.609C156.126 124.684 156.493 124.723 156.86 124.723C158.015 124.723 159.115 124.352 160.022 123.702C158.193 128.436 155.883 132.992 153.087 137.294L149.771 142.142L147.362 145.816L144.958 149.33L144.784 149.603C137.285 162.094 140.358 178.22 151.928 187.102C154.233 188.872 156.775 190.275 159.482 191.276C160.389 191.608 163.651 192.719 167.607 192.986C168.216 193.026 168.816 193.046 169.406 193.046C176.678 193.046 182.755 190.146 185.863 188.317C188.461 186.79 189.323 183.449 187.796 180.852C186.27 178.254 182.929 177.387 180.331 178.918C178.056 180.257 173.476 182.453 168.335 182.106C165.718 181.932 163.497 181.134 163.254 181.045C161.579 180.43 160.003 179.558 158.57 178.457C151.437 172.98 149.509 163.071 154.059 155.348L156.394 151.932L158.803 148.259L162.129 143.401L162.198 143.297C171.156 129.532 175.89 113.535 175.89 97.0435C175.89 79.3767 170.516 62.4336 160.35 48.0583C158.61 45.5996 155.209 45.0147 152.75 46.7546C150.292 48.4945 149.707 51.895 151.447 54.3537C160.305 66.88 164.989 81.642 164.989 97.0435C164.989 104.082 163.998 111.012 162.075 117.66C161.504 115.826 159.983 114.348 157.965 113.932C154.986 113.317 152.032 112.43 149.181 111.295C142.698 108.712 136.913 104.935 131.995 100.072C129.854 97.9556 126.399 97.9754 124.282 100.117C122.166 102.258 122.185 105.713 124.327 107.83C130.29 113.724 137.294 118.299 145.141 121.427L145.127 121.422Z" fill="#1E1F23"/>
<path d="M29.4843 169.322C32.2454 169.693 35.0164 169.877 37.7873 169.877C42.7989 169.877 47.8005 169.267 52.7377 168.058C60.9415 166.045 68.5109 162.481 75.2326 157.469C77.6467 155.67 78.1424 152.255 76.343 149.841C74.5436 147.427 71.1282 146.931 68.7141 148.73C63.1722 152.864 56.9214 155.804 50.1402 157.469C43.8002 159.026 37.3412 159.373 30.9417 158.515C27.9576 158.114 25.2114 160.206 24.8099 163.19C24.4083 166.174 26.5002 168.92 29.4893 169.322H29.4843Z" fill="#1E1F23"/>
<path d="M180.534 131.103C188.257 134.37 196.456 136.025 204.903 136.025C212.8 136.025 220.498 134.573 227.79 131.708C230.59 130.607 231.973 127.44 230.873 124.639C229.772 121.838 226.605 120.46 223.804 121.556C217.791 123.92 211.432 125.115 204.908 125.115C197.929 125.115 191.157 123.747 184.788 121.055C182.012 119.88 178.814 121.179 177.64 123.955C176.465 126.726 177.763 129.928 180.539 131.103H180.534Z" fill="#1E1F23"/>
<path d="M103.205 166.947L109.803 171.448L110.769 172.103C119.737 178.879 121.928 191.519 115.741 200.942C114.547 202.762 113.099 204.378 111.439 205.741C110.472 206.534 105.287 210.505 98.0795 210.609C87.3178 210.777 80.5019 202.008 79.7583 201.012C77.9589 198.593 74.5436 198.092 72.1295 199.892C69.7154 201.691 69.2098 205.106 71.0092 207.52C72.759 209.875 82.217 221.519 97.782 221.519C97.9357 221.519 98.0844 221.519 98.2381 221.519C108.806 221.365 116.316 215.853 118.364 214.168C120.872 212.106 123.058 209.672 124.852 206.931C134.221 192.664 130.85 173.495 117.189 163.294L110.403 158.654L109.372 157.96C102.199 152.998 96.0719 146.886 91.1496 139.976C91.7742 140.219 92.4433 140.348 93.1175 140.348C94.0197 140.348 94.9318 140.125 95.7745 139.654C98.9866 137.855 102.07 135.753 104.935 133.398C111.468 128.04 116.757 121.561 120.659 114.14C122.062 111.473 121.035 108.177 118.369 106.774C115.702 105.371 112.405 106.397 111.007 109.064C107.79 115.186 103.418 120.535 98.02 124.961C95.6456 126.909 93.0977 128.649 90.4457 130.132C88.7504 131.083 87.7639 132.803 87.6697 134.613C81.0472 123.375 77.4038 110.437 77.4038 97.0286C77.4038 81.6271 82.0881 66.8652 90.9463 54.3388C92.6862 51.8801 92.1013 48.4796 89.6426 46.7397C87.184 44.9998 83.7785 45.5847 82.0435 48.0434C71.8767 62.4237 66.5033 79.3618 66.5033 97.0286C66.5033 124.922 80.2193 151.06 103.195 166.942L103.205 166.947Z" fill="#1E1F23"/>
<path d="M250.547 0H5.45271C2.43885 0 0 2.43885 0 5.45271V250.547C0 253.561 2.43885 256 5.45271 256H250.547C253.561 256 256 253.561 256 250.547V5.45271C256 2.43885 253.561 0 250.547 0ZM245.095 245.095H10.9054V10.9054H245.095V245.095Z" fill="#1E1F23"/>
</g>
<defs>
<clipPath id="clip0_869_4089">
<rect width="256" height="256" fill="white"/>
</clipPath>
</defs>
</svg>
